<?xml version="1.0" encoding="UTF-8"?>
<svg version="1.1" xmlns="http://www.w3.org/2000/svg" width="75" height="75">
<path d="M0 0 C3.0625 1.5 3.0625 1.5 5 3 C5.474375 2.505 5.94875 2.01 6.4375 1.5 C10.23064985 -0.7203804 13.7036758 -0.56874417 18 0 C21.73698169 1.62477465 23.84763317 3.55621307 26 7 C26.495 8.485 26.495 8.485 27 10 C28.69246243 11.55248434 30.48428021 12.91074438 32.30859375 14.3046875 C36.49072321 18.49647546 36.34648377 23.79536991 36.65625 29.37890625 C37.00689539 32.05257732 37.79980043 33.62322684 39 36 C39.94645933 42.66923664 39.06342679 46.58209761 35 52 C34.36561179 53.65539927 33.76379915 55.32349339 33.1875 57 C31.01492896 62.73870359 27.46786613 66.26606693 22 69 C15.36205466 69.72826379 11.39111471 69.20769928 6 65 C2.85239107 64.69236457 2.85239107 64.69236457 0.4375 67 C-4.14919239 69.66862103 -7.80572804 69.83751291 -13 69 C-19.76189293 65.61905353 -22.87015102 60.8980188 -25.20703125 53.96484375 C-26.01150263 51.72269458 -26.01150263 51.72269458 -28.1875 49.125 C-30.72862783 44.74374513 -30.70833798 40.95836587 -30 36 C-29.01642648 33.99187074 -28.01691264 31.99145391 -27 30 C-26.87488245 27.81521742 -26.87488245 27.81521742 -27 25.5 C-27.12975275 21.20374216 -26.47840233 18.63499008 -24 15 C-21 12.5 -21 12.5 -18 10 C-17.505 8.989375 -17.01 7.97875 -16.5 6.9375 C-13.00095161 0.08519691 -7.09229357 -1.13424548 0 0 Z M-9.9375 8.5625 C-11.41667055 11.95589126 -10.66256676 14.42213949 -10 18 C-10.33 18.66 -10.66 19.32 -11 20 C-12.32 20 -13.64 20 -15 20 C-15.66 19.34 -16.32 18.68 -17 18 C-18.66846734 19.69495956 -18.66846734 19.69495956 -20 22 C-19.72386889 24.69227833 -19.01776825 26.94923358 -18.125 29.5 C-18.08375 30.325 -18.0425 31.15 -18 32 C-18.804375 32.78375 -19.60875 33.5675 -20.4375 34.375 C-23.31569329 36.81912375 -23.31569329 36.81912375 -23.5625 40.5 C-22.89812431 44.63389319 -22.10898645 46.20988395 -19 49 C-15.37526891 50.35835671 -15.37526891 50.35835671 -12 51 C-11.67 52.65 -11.34 54.3 -11 56 C-13.475 56.495 -13.475 56.495 -16 57 C-12.69890545 60.91662977 -12.69890545 60.91662977 -8 62.5625 C-4.34092496 61.87642343 -2.64832324 60.57265686 0 58 C1.65497356 54.69005287 1.10084335 51.00877 1.0625 47.375 C1.05798828 46.57320312 1.05347656 45.77140625 1.04882812 44.9453125 C1.03703168 42.96350994 1.01909605 40.98174567 1 39 C-1.64 39.33 -4.28 39.66 -7 40 C-7.33 38.35 -7.66 36.7 -8 35 C-7.236875 34.731875 -6.47375 34.46375 -5.6875 34.1875 C-3.08247899 33.0364442 -1.75636995 32.19546244 0 30 C1.28071458 26.15785626 1.22325983 22.50434108 1.25 18.5 C1.270625 17.72785156 1.29125 16.95570312 1.3125 16.16015625 C1.4594975 11.94157985 1.4594975 11.94157985 -0.33300781 8.28320312 C-2.05345582 6.74237987 -2.05345582 6.74237987 -5 6.5625 C-8.01717417 6.74266791 -8.01717417 6.74266791 -9.9375 8.5625 Z M9.3359375 8.00390625 C7.19119376 11.2084795 7.56841805 14.65316489 7.625 18.375 C7.61339844 19.13039063 7.60179687 19.88578125 7.58984375 20.6640625 C7.61401337 25.27240306 8.08448155 28.23323528 11 32 C13.63410505 34.43703426 13.63410505 34.43703426 17 35 C16.67 36.65 16.34 38.3 16 40 C12.04 39.505 12.04 39.505 8 39 C7.8916333 41.7302389 7.81253306 44.45614543 7.75 47.1875 C7.71648438 47.95642578 7.68296875 48.72535156 7.6484375 49.51757812 C7.57933961 53.54253008 7.68244997 55.49808724 9.890625 58.98828125 C12.38686961 61.36895898 13.39638799 61.9195184 16.8125 62.375 C21.00660847 61.88157547 22.32606877 60.14580144 25 57 C23.68 56.34 22.36 55.68 21 55 C21 53.68 21 52.36 21 51 C21.54269531 50.82984375 22.08539063 50.6596875 22.64453125 50.484375 C25.84309317 49.40089817 28.43892457 48.490941 31 46.25 C32.48404664 42.91089505 32.50688503 40.61155586 32 37 C30.35353315 35.31337542 28.68816933 33.64488294 27 32 C27.125 29.5 27.125 29.5 28 27 C28.90128638 24.49582411 28.90128638 24.49582411 29 22 C27.16641665 19.66545339 27.16641665 19.66545339 25 18 C24.67 18.66 24.34 19.32 24 20 C22.68 20 21.36 20 20 20 C19 17 19 17 19.625 14.0625 C20.26269862 11.03897369 20.26269862 11.03897369 18.9375 8.625 C17.02989739 6.7361143 17.02989739 6.7361143 14 6.5625 C11.1121379 6.78572809 11.1121379 6.78572809 9.3359375 8.00390625 Z " fill="#1B1B1B" transform="translate(33,3)"/>
</svg>
